<svg xmlns="http://www.w3.org/2000/svg" width="512" height="512" viewBox="0 0 512 512" version="1.1">
	<path d="M 222.431 38.007 C 206.168 39.683, 185.867 45.995, 172.237 53.612 C 150.815 65.585, 129.390 88.360, 119.019 110.185 C 111.771 125.439, 107.889 143.253, 111.510 144.642 C 113.998 145.597, 131.069 143.185, 133.611 141.519 C 137.545 138.941, 139.065 135.572, 140.604 126.013 C 143.360 108.886, 148.871 99.272, 160.084 92.024 C 170.800 85.098, 180.983 84.366, 195.016 89.513 C 220.186 98.746, 217.313 98.095, 231.500 97.784 C 243.686 97.518, 244.500 97.618, 244.500 99.392 C 244.500 104.137, 232.702 107.733, 221 106.555 C 217.425 106.195, 210 104.743, 204.500 103.329 C 187.690 99.007, 179.067 100.377, 170.458 108.738 C 165.792 113.270, 164.582 116.213, 162.559 127.953 C 160.543 139.652, 157.108 147.499, 151.673 152.820 C 145.961 158.412, 141.251 160.129, 129.208 161.012 C 114.900 162.060, 114.719 162.258, 115.585 175.946 C 117.198 201.431, 109.193 226.845, 95.912 238.408 C 90.966 242.714, 82.836 246.828, 77.590 247.679 C 73.491 248.344, 69 247.410, 69 245.892 C 69 245.304, 71.953 241.600, 75.563 237.661 C 83.189 229.339, 89.869 216.764, 93.179 204.500 C 95.004 197.735, 95.350 193.645, 95.419 178 C 95.487 162.488, 94.948 155.182, 92.080 132.766 C 88.151 102.049, 87.852 103.828, 97.683 99.468 C 100.534 98.204, 103.909 95.957, 105.183 94.476 C 106.457 92.995, 109.851 90.737, 112.724 89.458 C 123.524 84.652, 124.904 74.367, 115.288 70.348 C 113.522 69.609, 109.472 66.341, 106.288 63.086 C 101.586 58.277, 99.422 56.856, 94.750 55.512 C 89.441 53.985, 88.575 53.982, 83.459 55.469 C 74.340 58.120, 67.218 65.988, 65.462 75.353 C 64.991 77.864, 63.883 79.655, 62.128 80.741 C 57.121 83.843, 55 86.325, 55 89.085 C 55 92.418, 59.498 96.527, 64.226 97.513 C 66.027 97.889, 68.552 98.863, 69.837 99.678 C 72.098 101.112, 72.153 101.461, 71.502 110.330 C 70.963 117.682, 71.286 122.078, 73.130 132.500 C 75.034 143.255, 75.437 149.126, 75.466 166.500 C 75.497 185.401, 75.274 188.280, 73.240 195.299 C 68.278 212.417, 58.464 227.200, 46 236.331 C 39.915 240.789, 39.038 241.763, 39.015 244.085 C 38.994 246.323, 54.886 266.054, 63.923 275.008 C 68.090 279.138, 78.749 287.997, 87.609 294.695 C 110.128 311.719, 115.439 318.224, 115.332 328.656 C 115.160 345.477, 94.076 351.101, 82.143 337.510 C 78.361 333.203, 77.405 334.381, 78.979 341.406 C 82.165 355.625, 95.840 370.781, 112.501 378.561 C 124.217 384.032, 134.596 386.232, 151.230 386.770 C 160.757 387.078, 166.304 387.662, 166.935 388.422 C 169.194 391.143, 160.763 404.857, 144.296 425.250 C 138.633 432.262, 134 438.221, 134 438.492 C 134 439.303, 159.653 451.905, 168.848 455.612 C 186.987 462.925, 210.637 468.593, 227.376 469.639 C 233.557 470.026, 242.721 471.575, 250.905 473.616 C 263.889 476.855, 269 477.118, 269 474.545 C 269 473.864, 266.747 470.201, 263.994 466.404 C 261.241 462.607, 257.821 457.835, 256.395 455.801 L 253.802 452.102 257.151 448.069 C 258.993 445.851, 260.828 444.028, 261.230 444.018 C 261.631 444.008, 262.930 445.913, 264.117 448.250 C 265.303 450.588, 267.661 454.525, 269.356 457 C 277.647 469.103, 282.499 469.046, 286.568 456.795 C 287.941 452.661, 288.529 452.001, 290.830 452.005 C 294.096 452.011, 297.324 454.640, 303.824 462.588 C 306.563 465.936, 310.235 469.269, 311.985 469.994 C 314.865 471.187, 316.053 471.012, 324.518 468.148 C 337.944 463.607, 343 461.274, 343 459.622 C 343 458.825, 339.288 454.725, 334.750 450.511 C 325.234 441.673, 324.885 441.164, 323.847 434.593 C 322.810 428.036, 319.035 424, 313.938 424 C 310.454 424, 310.090 423.684, 307.375 418.295 C 305.794 415.157, 303.288 411.713, 301.807 410.642 C 299.245 408.790, 298.988 408.778, 296.510 410.401 C 295.078 411.340, 292.339 414.558, 290.422 417.554 C 288.506 420.549, 286.472 423, 285.903 423 C 285.333 423, 283.431 421.905, 281.676 420.566 C 279.921 419.228, 276.051 417.005, 273.076 415.627 C 268.274 413.402, 267.377 413.271, 265.081 414.458 C 259.917 417.128, 258.678 419.542, 258.044 428.165 C 257.454 436.206, 257.412 436.307, 253.092 440.140 L 248.736 444.006 238.118 433.750 C 232.278 428.108, 220.546 418.094, 212.047 411.496 C 203.548 404.898, 192.628 395.675, 187.780 391 L 178.965 382.500 181.511 374.500 C 182.912 370.100, 184.254 365.942, 184.494 365.260 C 184.791 364.414, 186.372 364.994, 189.472 367.086 C 195.360 371.060, 216.756 381.197, 234.500 388.421 C 242.200 391.556, 250.300 394.880, 252.500 395.809 C 254.700 396.737, 261.559 400.535, 267.742 404.248 C 273.925 407.962, 279.618 411, 280.393 411 C 281.168 411, 284.701 407.775, 288.243 403.833 L 294.684 396.666 306.816 397.980 C 327.120 400.179, 334.021 398.727, 341.806 390.617 C 343.965 388.368, 348.612 385.696, 355.194 382.918 C 371.264 376.137, 378.324 370.653, 384.697 360 C 387.230 355.765, 390.607 345.273, 389.721 344.388 C 389.371 344.038, 387.603 345, 385.792 346.527 C 379.113 352.159, 371.937 353.478, 366.387 350.094 C 363.141 348.115, 359 340.911, 359 337.244 C 359 336.075, 361.560 330.255, 364.689 324.310 L 370.378 313.500 370.787 301.500 C 371.057 293.577, 371.670 288.750, 372.593 287.293 C 373.361 286.080, 377.479 282.537, 381.745 279.421 C 386.010 276.305, 391.601 271.726, 394.169 269.245 L 398.838 264.735 402.037 271.118 C 411.191 289.380, 426.149 303.375, 442.546 309.016 C 454.019 312.963, 471.938 312.276, 472.789 307.857 C 472.978 306.874, 469.912 303.990, 464.490 300.050 C 451.008 290.255, 445.244 281.875, 442.969 268.765 C 441.131 258.175, 442.845 248.839, 449.985 230.539 C 461.923 199.941, 464.940 181.053, 461.571 158 C 454.066 106.646, 418.753 63.781, 371.500 48.663 C 358.667 44.557, 352.317 43.574, 338.500 43.557 C 324.333 43.539, 316.149 44.980, 301.399 50.091 C 296.782 51.691, 292.028 53, 290.836 53 C 289.643 53, 283.025 50.495, 276.128 47.432 C 256.824 38.861, 241.037 36.090, 222.431 38.007 M 201.655 55.829 C 195.522 62.606, 207.316 77.413, 223.326 83.036 C 228.028 84.687, 233.077 85.377, 244.500 85.928 C 261.999 86.771, 265.971 88.077, 277.417 96.749 C 285.572 102.927, 285.985 102.934, 296 97.076 C 309.239 89.333, 322.441 86.315, 338.788 87.296 C 351.288 88.046, 358.273 89.920, 370 95.671 C 378.041 99.614, 380.889 101.725, 388.539 109.415 C 402.860 123.809, 408.726 138.226, 407.698 156.500 C 407.136 166.487, 404.919 173.852, 400.134 181.628 C 394.594 190.631, 396.488 193.062, 404.657 187.436 C 430.463 169.663, 431.730 127.809, 407.350 98.490 C 405.232 95.944, 400.350 91.462, 396.500 88.531 C 380.829 76.600, 363.978 71, 343.746 71 C 326.943 71, 317.285 73.416, 301.322 81.611 C 294.477 85.125, 287.616 88, 286.075 88 C 284.295 88, 280.880 86.234, 276.709 83.154 C 266.946 75.947, 261.458 73.938, 248.562 72.847 C 235.218 71.718, 231.255 70.747, 223.740 66.764 C 219.864 64.709, 216.838 62.122, 214.491 58.855 C 211.358 54.494, 210.612 54, 207.157 54 C 204.700 54, 202.712 54.661, 201.655 55.829 M 82.635 75.073 C 77.450 79.151, 80.397 85, 87.638 85 C 92.689 85, 95.250 83.144, 95.250 79.482 C 95.250 73.655, 87.764 71.038, 82.635 75.073 M 266.607 129.582 C 266.273 130.452, 266 132.877, 266 134.971 C 266 140.460, 263.328 153.741, 260.448 162.562 C 257.345 172.069, 249.269 189.295, 245.020 195.471 C 243.253 198.039, 241.964 200.297, 242.155 200.488 C 242.346 200.680, 244.977 200.167, 248.001 199.350 C 254.569 197.575, 265.353 198.124, 270.333 200.488 C 274.499 202.465, 276.485 206.225, 274.914 209.161 C 273.918 211.021, 273.302 211.131, 268.159 210.369 C 253.767 208.235, 243.458 210.625, 228.387 219.590 C 222.526 223.076, 214.643 227.140, 210.868 228.622 C 204.078 231.286, 203.961 231.395, 199.927 238.907 C 190.030 257.336, 177.690 269.134, 164.162 273.098 L 159.825 274.369 160.511 282.121 C 161.310 291.151, 160.100 295.990, 156.293 298.984 C 153.192 301.423, 148.036 301.585, 143.409 299.390 C 140.074 297.807, 133 288.160, 133 285.193 C 133 284.149, 131.993 283.976, 128.750 284.466 C 121.532 285.555, 119 286.137, 119 286.707 C 119 287.009, 121.169 290.235, 123.820 293.878 C 126.472 297.520, 130.718 303.466, 133.258 307.091 C 138.869 315.103, 143.735 319.502, 150.435 322.622 C 158.937 326.581, 165.281 325.527, 170.682 319.259 L 173.864 315.567 176.044 317.533 C 177.243 318.615, 180.963 323.550, 184.311 328.500 C 191.616 339.299, 204.884 352.764, 214.525 359.163 C 237.066 374.123, 270.282 385.238, 293 385.423 C 306.660 385.534, 309.357 384.734, 315.902 378.635 C 318.981 375.765, 324.025 371.556, 327.110 369.282 C 334.409 363.902, 340.664 355.468, 345.560 344.405 C 349.873 334.662, 353.872 326.678, 358.985 317.605 L 362.307 311.711 362.128 298.544 C 361.967 286.767, 363.142 276.670, 365.593 268.750 C 366.045 267.292, 365.490 267, 362.267 267 C 360.140 267, 357.926 266.526, 357.347 265.947 C 356.609 265.209, 356.125 267.230, 355.731 272.697 C 354.896 284.303, 350.985 291.855, 344.380 294.615 C 339.979 296.454, 336.784 295.142, 333.472 290.137 C 327.959 281.806, 326.163 267.389, 329.470 258 C 333.584 246.320, 343.496 237, 351.803 237 C 359.588 237, 366.985 243.591, 364.202 248.048 C 362.565 250.669, 362.638 250.792, 365.500 250.245 C 367.577 249.848, 368 250.154, 368 252.055 C 368 253.313, 367.255 255.165, 366.345 256.171 C 365.033 257.621, 364.981 257.997, 366.095 257.985 C 368.607 257.957, 369.666 256.598, 371.930 250.501 C 374.682 243.092, 375.680 232.591, 374.091 227.774 C 371.625 220.304, 359.958 212.031, 351.857 212.010 C 347.515 211.998, 346.222 209.836, 348.490 206.375 C 352.841 199.734, 367.378 203.569, 373.623 213.006 C 375.076 215.203, 376.501 217, 376.788 217 C 377.075 217, 377.024 211.033, 376.674 203.741 C 375.701 183.449, 372.672 168.769, 368.988 166.492 C 368.423 166.143, 362.007 165.715, 354.730 165.540 C 345.171 165.310, 339.697 164.674, 335 163.248 C 318.844 158.345, 304.959 150.910, 288.368 138.280 C 283.983 134.942, 278.844 131.265, 276.948 130.109 C 272.817 127.591, 267.475 127.319, 266.607 129.582 M 138.500 205.524 C 148.187 210.182, 158.321 212.030, 173.208 211.856 L 185.500 211.713 176 210.833 C 162.223 209.556, 149.539 207.224, 141.229 204.438 C 131.228 201.085, 130.155 201.512, 138.500 205.524 M 179 230.732 C 172.752 232.844, 169.080 233.344, 157 233.727 C 142.324 234.193, 142.708 234.237, 120.500 229.532 L 117.500 228.896 120.103 230.403 C 121.535 231.232, 126.485 232.906, 131.103 234.122 C 143.727 237.447, 162.242 237.221, 174.368 233.594 C 182.323 231.214, 190.091 227.987, 187.500 228.139 C 186.950 228.171, 183.125 229.338, 179 230.732 M 244 237.467 C 234.970 240.053, 224.424 245.719, 219.528 250.615 C 218.031 252.112, 218.037 252.384, 219.608 254.119 C 221.239 255.922, 221.182 256, 218.237 256 C 216.547 256, 214.452 256.273, 213.582 256.607 C 211.578 257.376, 211.527 259.881, 213.500 260.638 C 216.190 261.671, 215.084 263.664, 210.913 265.302 C 206.338 267.099, 206.422 268.023, 211.374 270.373 C 214.433 271.825, 215.208 271.838, 218.996 270.501 C 221.315 269.683, 223.564 269.231, 223.993 269.496 C 224.422 269.761, 225.085 271.670, 225.466 273.739 C 227.657 285.640, 235.773 294.858, 246.287 297.387 C 252.747 298.940, 260.253 294.279, 264.624 286 C 267.445 280.657, 267.079 268.601, 263.795 258.750 C 261.401 251.567, 261.344 251, 263.017 251 C 267.275 251, 273.776 262.429, 274.720 271.575 C 275.679 280.863, 278 277.948, 278 267.456 C 278 255.366, 271.256 243.300, 261.890 238.633 C 256.054 235.724, 251.193 235.408, 244 237.467 M 340.315 255.007 C 332.917 257.988, 335.475 272, 343.418 272 C 349.379 272, 352.656 265.103, 349.549 259.096 C 348.281 256.643, 344.100 253.578, 342.685 254.063 C 342.583 254.098, 341.517 254.523, 340.315 255.007 M 249.302 256.501 C 243.385 260.645, 247.286 273, 254.511 273 C 255.415 273, 257.525 271.629, 259.200 269.954 C 261.810 267.344, 262.163 266.392, 261.663 263.310 C 260.530 256.329, 254.382 252.943, 249.302 256.501 M 310.239 305.666 C 308.432 306.394, 306.911 309.604, 307.565 311.308 C 307.991 312.419, 308.949 312.575, 311.631 311.971 C 313.560 311.535, 316.521 311.576, 318.212 312.061 C 319.902 312.545, 321.671 312.704, 322.142 312.412 C 323.751 311.418, 323.019 307.080, 321.066 306.035 C 319.088 304.977, 312.507 304.752, 310.239 305.666 M 318.750 333.080 C 317.622 333.737, 317 335.318, 317 337.527 C 317 342.749, 313.593 344.507, 303.544 344.470 C 293.785 344.434, 286.926 341.651, 284.973 336.934 C 284.304 335.320, 282.997 334, 282.067 334 C 280.288 334, 276 337.480, 276 338.924 C 276 339.390, 278.891 342.475, 282.424 345.780 C 290.452 353.290, 295.988 355.371, 306.525 354.839 C 314.621 354.430, 317.138 353.145, 322.271 346.803 C 326.011 342.183, 327.131 335.300, 324.461 333.348 C 322.285 331.757, 321.116 331.702, 318.750 333.080" stroke="none" fill="black" fill-rule="evenodd"/>
</svg>